<svg width="40" height="40" viewBox="0 0 40 40" fill="none" xmlns="http://www.w3.org/2000/svg">
<path d="M12.4167 39.1667C11.3626 39.1667 10.4605 38.7916 9.71041 38.0416C8.95908 37.2903 8.58341 36.3875 8.58341 35.3333C8.58341 34.2792 8.95908 33.3764 9.71041 32.6251C10.4605 31.875 11.3626 31.5 12.4167 31.5C13.4709 31.5 14.373 31.875 15.1231 32.6251C15.8744 33.3764 16.2501 34.2792 16.2501 35.3333C16.2501 36.3875 15.8744 37.2903 15.1231 38.0416C14.373 38.7916 13.4709 39.1667 12.4167 39.1667ZM31.5834 39.1667C30.5292 39.1667 29.6271 38.7916 28.8771 38.0416C28.1257 37.2903 27.7501 36.3875 27.7501 35.3333C27.7501 34.2792 28.1257 33.3764 28.8771 32.6251C29.6271 31.875 30.5292 31.5 31.5834 31.5C32.6376 31.5 33.5403 31.875 34.2917 32.6251C35.0417 33.3764 35.4167 34.2792 35.4167 35.3333C35.4167 36.3875 35.0417 37.2903 34.2917 38.0416C33.5403 38.7916 32.6376 39.1667 31.5834 39.1667ZM8.96675 4.66668H37.2376C37.9723 4.66668 38.5313 4.99379 38.9147 5.64801C39.298 6.30351 39.314 6.96668 38.9626 7.63751L32.1584 19.9042C31.807 20.5431 31.3355 21.0382 30.7439 21.3896C30.1536 21.741 29.507 21.9167 28.8042 21.9167H14.5251L12.4167 25.75H35.4167V29.5833H12.4167C10.9792 29.5833 9.89314 28.9521 9.15841 27.6897C8.42369 26.4285 8.39175 25.175 9.06258 23.9292L11.6501 19.2333L4.75008 4.66668H0.916748V0.833344H7.14591L8.96675 4.66668Z" fill="#B4FF7A"/>
</svg>
