<svg width="41" height="41" viewBox="0 0 41 41" fill="none" xmlns="http://www.w3.org/2000/svg">
<path d="M20.5 0.0833435C9.23004 0.0833435 0.083374 9.23001 0.083374 20.5C0.083374 31.77 9.23004 40.9167 20.5 40.9167C31.77 40.9167 40.9167 31.77 40.9167 20.5C40.9167 9.23001 31.77 0.0833435 20.5 0.0833435ZM20.5 8.25001C24.4405 8.25001 27.6459 11.4554 27.6459 15.3958C27.6459 19.3363 24.4405 22.5417 20.5 22.5417C16.5596 22.5417 13.3542 19.3363 13.3542 15.3958C13.3542 11.4554 16.5596 8.25001 20.5 8.25001ZM20.5 36.8333C16.3555 36.8333 11.4555 35.1592 7.96421 30.9533C11.5404 28.1475 15.9545 26.6226 20.5 26.6226C25.0456 26.6226 29.4597 28.1475 33.0359 30.9533C29.5446 35.1592 24.6446 36.8333 20.5 36.8333Z" fill="#B4FF7A"/>
</svg>
